HIERARCHY
ROOT pelvis
{
  OFFSET 0 100 0
  CHANNELS 6 Xposition Yposition Zposition Zrotation Xrotation Yrotation
  JOINT pelvis_right_femur
  {
    OFFSET -10.78128 -3.44521 -0.5502486
    CHANNELS 3 Zrotation Xrotation Yrotation
    JOINT right_femur_tibia
    {
      OFFSET -0.8047443 -44.0398 -0.1307829
      CHANNELS 3 Zrotation Xrotation Yrotation
      JOINT right_tibia_foot
      {
        OFFSET 3.006224 -47.83518 -5
        CHANNELS 3 Zrotation Xrotation Yrotation
        End Site
        {
          OFFSET 0 -5 15
        }
      }
    }
  }
  JOINT pelvis_left_femur
  {
    OFFSET 10.78128 -3.44521 -0.5502486
    CHANNELS 3 Zrotation Xrotation Yrotation
    JOINT left_femur_tibia
    {
      OFFSET 0.8047443 -44.0398 -0.1307829
      CHANNELS 3 Zrotation Xrotation Yrotation
      JOINT left_tibia_foot
      {
        OFFSET -4.370144 -48.10324 -4.275266
        CHANNELS 3 Zrotation Xrotation Yrotation
        End Site
        {
          OFFSET 0 -5 15
        }
      }
    }
  }
  JOINT pelvis_spine1
  {
    OFFSET 0 6.468898 -3.129235
    CHANNELS 3 Zrotation Xrotation Yrotation
    JOINT spine1
    {
      OFFSET 0 23.15396 4.99043
      CHANNELS 3 Zrotation Xrotation Yrotation
      JOINT spine2
      {
        OFFSET 0 20.79997 -5.064912
        CHANNELS 3 Zrotation Xrotation Yrotation
        JOINT neck
        {
          OFFSET 0 14.38658 9.616178
          CHANNELS 3 Zrotation Xrotation Yrotation
          End Site
          {
            OFFSET 0 20 0
          }
        }
      }
      JOINT right_manubrium
      {
        OFFSET -5.722621 16.35077 3.967754
        CHANNELS 3 Zrotation Xrotation Yrotation
        JOINT right_clavicle
        {
          OFFSET -13.16364 1.694482 -4.693211
          CHANNELS 3 Zrotation Xrotation Yrotation
          JOINT right_humerus
          {
            OFFSET -28.5034 -0.3100689 -2.792744
            CHANNELS 3 Zrotation Xrotation Yrotation
            JOINT right_radius
            {
              OFFSET -25.15693 0.02248979 -1.271978
              CHANNELS 3 Zrotation Xrotation Yrotation
              End Site
              {
                OFFSET -15 0 0
              }
            }
          }
        }
      }
      JOINT left_manubrium
      {
        OFFSET 5.722621 16.35077 3.967754
        CHANNELS 3 Zrotation Xrotation Yrotation
        JOINT left_clavicle
        {
          OFFSET 13.16364 1.694482 -4.693211
          CHANNELS 3 Zrotation Xrotation Yrotation
          JOINT left_humerus
          {
            OFFSET 29.39168 -1.063119 -2.237045
            CHANNELS 3 Zrotation Xrotation Yrotation
            JOINT left_radius
            {
              OFFSET 24.59957 -0.9528479 0.9047498
              CHANNELS 3 Zrotation Xrotation Yrotation
              End Site
              {
                OFFSET 15 -0 -0
              }
            }
          }
        }
      }
    }
  }
}
MOTION
Frames: 17
Frame Time: 0.0416666666667
0 103.5113 0 0.5925882 0.632126 0.48425 3.25262 -20.05628 9.835209 -0 42.03451 -0 -4.595101 -14.40051 -4.893341 -6.8427 9.256766 -23.08372 -0 2.069555 -0 2.34584 -20.546 22.58622 -4.334198 -1.47194 3.740486 3.087908 8.199004 -8.442135 0.2704929 21.78748 8.488558 3.861812 -25.04332 9.023911 9.393923 -19.05307 12.14303 84.09284 41.42349 -19.52802 -0 0 16.09565 -8.121302 10.84607 7.537093 3.737212 -18.33126 -1.898975 -97.51531 37.8266 27.25819 0 0 -19.52677 -7.179537 13.36099 24.86534
0.3696869 104.2542 0.996758 0.7387856 0.03785359 1.029476 2.852152 -19.43291 9.569357 -0 43.77237 -0 -4.689943 -13.43337 -5.061109 -6.946612 9.20448 -22.77517 -0 2.854328 -0 2.144078 -20.37496 22.41114 -4.420038 -1.375009 3.67157 2.955941 8.439634 -8.390312 0.2545066 21.95074 8.456439 3.852881 -24.68914 8.892543 9.367392 -18.9951 12.18067 84.37713 41.12113 -19.58639 -0 0 15.79757 -8.758261 10.98078 7.814765 3.564103 -18.39316 -2.211486 -97.27618 37.88905 27.0557 0 0 -19.37563 -7.507724 13.18874 25.27953
0.6930362 104.7022 2.414367 0.2640555 1.717351 1.556919 3.727373 -23.08387 9.387571 -0 36.9813 -0 -3.949124 -14.3435 -5.117945 -6.347437 10.69631 -22.16625 -0 0.5754644 -0 0.9831763 -21.45882 20.87857 -4.064666 -1.365602 3.510927 3.296045 7.720435 -8.87415 0.1863154 21.30188 8.673246 3.804638 -25.31377 9.122465 9.093469 -18.63316 11.8903 84.69595 41.51528 -20.71336 -0 0 15.64841 -8.481847 11.434 7.755322 4.06738 -18.74313 -1.766757 -96.15505 38.15628 25.68239 0 0 -21.83886 -7.585905 12.45279 25.48948
0.9777577 104.8725 4.299982 -0.2093153 3.067768 2.095052 4.499758 -26.09963 9.084797 -0 31.10844 -0 -3.511148 -14.60844 -5.06957 -5.814982 12.10665 -21.51741 0 -0.5454276 0 -0.1147839 -22.13928 19.41728 -3.676899 -1.369704 3.327095 3.544824 7.142518 -9.229359 0.1689006 20.77974 8.822412 3.782048 -25.81696 9.309843 8.716932 -18.2298 11.6113 85.1314 41.58277 -21.68585 -0 0 15.27741 -8.359034 11.72943 7.67871 4.544307 -19.08289 -1.411194 -94.94369 37.97012 24.17645 0 0 -23.77137 -7.200474 11.9913 25.05603
1.227731 104.815 6.758611 -0.7282242 4.262812 2.631652 5.262164 -28.85296 8.64533 -0 25.4915 -0 -3.278607 -14.29141 -4.95435 -5.291956 13.56725 -20.72474 0 -0.5154241 0 -1.335123 -22.48248 17.80733 -3.210058 -1.377021 3.10984 3.741816 6.638585 -9.519009 0.1864397 20.30617 8.933648 3.778224 -26.2667 9.472322 8.228587 -17.73424 11.32331 85.72368 41.38636 -22.65176 -0 0 14.65375 -8.383112 11.95717 7.595242 5.019966 -19.45014 -1.107497 -93.57192 37.3897 22.45821 0 0 -25.46675 -6.446015 11.65564 24.12829
1.452741 104.6085 9.880214 -1.273635 5.24476 3.149547 6.008468 -31.10551 8.118021 -0 20.4998 -0 -3.280879 -13.39273 -4.771656 -4.814028 14.92195 -19.8168 -0 1.052101 -0 -2.632164 -22.35832 16.12291 -2.666737 -1.389727 2.890199 3.880074 6.247087 -9.724416 0.2359337 19.89837 9.001672 3.797063 -26.664 9.599198 7.672597 -17.17016 11.0565 86.42669 40.95654 -23.55094 -0 0 13.80801 -8.527567 12.11514 7.49566 5.442195 -19.81222 -0.8644352 -92.21083 36.42429 20.7408 0 0 -26.78629 -5.364113 11.43682 22.77538
1.667154 104.3681 13.74812 -1.815487 5.929013 3.624304 6.721947 -32.63458 7.518926 -0 16.46377 -0 -3.540002 -11.87308 -4.534447 -4.409173 16.02501 -18.76789 -0 4.591968 -0 -3.983386 -21.64151 14.40875 -2.049582 -1.398857 2.693831 3.948863 6.018197 -9.833718 0.3114142 19.57667 9.018759 3.83738 -26.98406 9.668636 7.080537 -16.55347 10.84065 87.23 40.29715 -24.3565 -0 0 12.74276 -8.818981 12.22529 7.390684 5.754635 -20.15829 -0.7149638 -90.96816 35.09806 19.17049 0 0 -27.64542 -4.02069 11.2956 21.09691
1.889855 104.2533 18.41527 -2.309275 6.218662 4.021368 7.389637 -33.14331 6.895749 -0 13.7779 -0 -4.068626 -9.778791 -4.251094 -4.107289 16.65042 -17.57537 -0 10.50809 -0 -5.319967 -20.20845 12.77218 -1.373638 -1.39443 2.562861 3.937912 6.010063 -9.831601 0.4035547 19.36663 8.974812 3.89569 -27.20011 9.654512 6.503544 -15.92729 10.71537 88.09251 39.44228 -25.01605 -0 0 11.50639 -9.263348 12.31068 7.288942 5.88732 -20.46648 -0.6928855 -89.98603 33.48553 17.9511 0 0 -27.93508 -2.525586 11.19798 19.24996
2.140218 104.462 23.87752 -2.692088 5.999225 4.295924 7.987188 -32.32682 6.295717 -0 12.76673 -0 -4.85717 -7.241317 -3.935114 -3.927019 16.5277 -16.23459 -0 19.03837 -0 -6.540442 -17.98923 11.35966 -0.6708128 -1.360049 2.547423 3.836055 6.287443 -9.705523 0.4992595 19.29981 8.855896 3.96198 -27.2655 9.522933 5.991107 -15.3595 10.7235 88.96304 38.42687 -25.47287 -0 0 10.18091 -9.880769 12.40095 7.208844 5.774523 -20.72584 -0.8430032 -89.36857 31.69569 17.25414 0 0 -27.58648 -1.025556 11.11822 17.42759
2.430383 105.2039 30.03842 -2.892468 5.176345 4.39971 8.479519 -29.95539 5.765398 -0 13.51755 -0 -5.849708 -4.53939 -3.609361 -3.859279 15.37082 -14.75551 -0 30.0007 -0 -7.522151 -15.03527 10.34177 0.005674972 -1.275739 2.701786 3.63671 6.899862 -9.45181 0.5818311 19.40331 8.647992 4.018536 -27.12314 9.240584 5.582938 -14.94833 10.90209 89.76611 37.29508 -25.66467 -0 0 8.906377 -10.69396 12.52793 7.179413 5.378319 -20.9384 -1.205402 -89.16916 29.86935 17.19452 0 0 -26.61673 0.3005407 11.04398 15.84579
2.754541 106.642 36.68401 -2.85041 3.722049 4.29536 8.817268 -26.00273 5.326927 -0 15.66246 -0 -6.925491 -2.105103 -3.312865 -3.850033 12.95957 -13.16051 -0 42.52211 -0 -8.152679 -11.58682 9.865496 0.5843228 -1.122733 3.068858 3.342452 7.852387 -9.082186 0.6344222 19.68637 8.341602 4.040484 -26.71472 8.786935 5.285325 -14.81153 11.2658 90.40442 36.08466 -25.53039 -0 0 7.87916 -11.73321 12.71716 7.244598 4.723497 -21.12735 -1.79849 -89.35918 28.14279 17.76991 0 0 -25.18427 1.283052 10.97328 14.68242
3.082759 108.8087 43.49561 -2.548016 1.73332 3.973045 8.947889 -20.74474 4.9651 -0 18.27475 -0 -7.899893 -0.4651848 -3.096046 -3.795744 9.234778 -11.48146 -0 54.9121 -0 -8.365066 -8.084821 10.00095 0.9905084 -0.8937953 3.661244 2.969866 9.071552 -8.625427 0.6459895 20.12285 7.939534 4.001857 -26.00707 8.172489 5.056074 -15.06043 11.78816 90.76317 34.8221 -25.01047 -0 0 7.333424 -13.02665 12.97462 7.462781 3.920301 -21.32832 -2.592811 -89.82852 26.61243 18.84096 0 0 -23.58693 1.814555 10.90158 14.01384
3.37057 111.5357 50.12492 -2.03274 -0.5394321 3.454583 8.837508 -14.72833 4.631468 -0 20.06686 -0 -8.568745 -0.09070081 -2.99225 -3.563335 4.354288 -9.754221 -0 64.92386 -0 -8.162425 -5.072343 10.7097 1.17261 -0.603663 4.447704 2.549431 10.39205 -8.118662 0.6173722 20.64298 7.463625 3.886033 -25.0247 7.451475 4.812726 -15.7622 12.39185 90.72465 33.53222 -24.04297 -0 0 7.494572 -14.57913 13.27483 7.898802 3.14818 -21.56012 -3.491386 -90.42615 25.31955 20.18199 0 0 -22.15863 1.887216 10.81073 13.7901
3.587003 114.4607 56.31403 -1.413653 -2.730519 2.777312 8.490753 -8.571942 4.27225 -0 19.92611 -0 -8.789198 -1.211122 -2.974078 -3.033436 -1.340938 -8.025949 -0 70.4493 -0 -7.625606 -2.99849 11.85812 1.126222 -0.291691 5.356242 2.118114 11.58587 -7.590172 0.5628701 21.14546 6.955628 3.695224 -23.87097 6.716318 4.473232 -16.90737 12.96066 90.191 32.26599 -22.56271 -0 0 8.517061 -16.34105 13.5597 8.604982 2.591296 -21.78401 -4.333293 -91.04069 24.27204 21.60743 0 0 -21.08676 1.578752 10.67404 13.88868
3.742795 117.1356 61.98965 -0.8251711 -4.468749 1.972307 7.951343 -2.719582 3.862381 -0 17.49134 -0 -8.546779 -3.691522 -2.93734 -2.151254 -7.424192 -6.372868 -0 70.32051 -0 -6.901179 -2.037577 13.26584 0.899103 -0.01165106 6.291975 1.707135 12.43225 -7.045638 0.5058364 21.53133 6.468233 3.452323 -22.71239 6.070319 4.003602 -18.39959 13.37443 89.11455 31.11341 -20.51811 -0 0 10.42449 -18.19176 13.75247 9.595355 2.3604 -21.88753 -4.934866 -91.66683 23.47552 23.08068 0 0 -20.27732 1.002191 10.4773 14.20198
3.892643 119.1823 67.26547 -0.3769162 -5.507582 1.061071 7.282911 2.657748 3.416703 -0 13.34811 -0 -7.960887 -7.041541 -2.744892 -0.9631032 -13.45791 -4.907991 -0 64.71833 -0 -6.1637 -2.050235 14.75484 0.5717703 0.1862166 7.155828 1.332602 12.79357 -6.47024 0.4719782 21.74303 6.048524 3.194334 -21.72246 5.593174 3.432171 -20.0722 13.54903 87.53199 30.16892 -17.90911 -0 0 13.07108 -19.96235 13.78005 10.82576 2.454159 -21.72357 -5.158943 -92.39149 22.9314 24.69368 0 0 -19.39158 0.2762413 10.24113 14.66312
4.107442 120.4019 72.36184 -0.1188481 -5.80673 0.07176642 6.5458 7.562198 2.965848 -0 8.72441 -0 -7.241213 -10.54444 -2.303558 0.3778684 -19.00747 -3.766831 -0 54.99103 -0 -5.558393 -2.697265 16.17647 0.2266756 0.2704568 7.855232 0.9941732 12.65763 -5.845408 0.4844937 21.78682 5.722337 2.962245 -21.01401 5.319231 2.82031 -21.72352 13.45883 85.59175 29.46737 -14.83116 -0 0 16.14194 -21.49269 13.59134 12.19279 2.780067 -21.18967 -4.9751 -93.30071 22.59808 26.52358 0 0 -18.03589 -0.4586295 10.03124 15.1833
